<?xml version="1.0" encoding="utf-8"?>
<!-- Generator: Adobe Illustrator 27.9.0, SVG Export Plug-In . SVG Version: 6.00 Build 0)  -->
<svg version="1.1" id="Шар_1" xmlns="http://www.w3.org/2000/svg" xmlns:xlink="http://www.w3.org/1999/xlink" x="0px" y="0px"
	 viewBox="0 0 100 100" style="enable-background:new 0 0 100 100;" xml:space="preserve">
<style type="text/css">
	.st0{fill:url(#SVGID_1_);}
	.st1{fill:url(#SVGID_00000064335662147889600420000015139103245984752781_);}
	.st2{fill:url(#SVGID_00000060723856795188417020000010589255406467102363_);}
</style>
<g>
	<linearGradient id="SVGID_1_" gradientUnits="userSpaceOnUse" x1="53.428" y1="51.6159" x2="83.6634" y2="5.3628">
		<stop  offset="0" style="stop-color:#B1D132"/>
		<stop  offset="0.0779" style="stop-color:#87C14B"/>
		<stop  offset="0.1487" style="stop-color:#68B55E"/>
		<stop  offset="0.188" style="stop-color:#5CB165"/>
		<stop  offset="0.2003" style="stop-color:#59B066"/>
		<stop  offset="0.3109" style="stop-color:#42A66D"/>
		<stop  offset="0.4149" style="stop-color:#34A071"/>
		<stop  offset="0.5047" style="stop-color:#2F9E72"/>
		<stop  offset="0.6876" style="stop-color:#2A8591"/>
	</linearGradient>
	<path class="st0" d="M46.2,21.01c-0.7,1.07-3.4,5.48-2.55,11.15c0.06,0.39,0.34,2.16,1.32,4.3c2.36,5.15,6.66,7.8,8.98,9.19
		c5.64,3.38,10.96,3.82,14.21,4.04c3.59,0.25,6.74,0.47,10.47-1.02c4.69-1.88,7.4-5.31,8.6-7.06c-0.29-1.63-0.74-3.5-1.45-5.53
		c-0.78-2.26-1.69-4.18-2.55-5.74c-0.71,0.81-1.92,2-3.74,2.89c-0.23,0.11-1.25,0.61-2.85,0.98c-1.1,0.26-3.65,0.82-6.85,0.17
		c-1.63-0.33-4.99-1.01-7.06-3.74c-0.97-1.28-1.22-2.42-1.28-2.68c-0.09-0.46-0.38-2.12,0.47-3.91c0.84-1.78,2.29-2.59,3.06-3.02
		c0.29-0.16,1.39-0.76,3.7-1.11c1.43-0.22,3.59-0.38,6.26,0.04c-1.21-1.11-2.7-2.32-4.47-3.49c-2.19-1.45-4.27-2.49-6.04-3.23
		c-0.56-0.03-1.34-0.05-2.28-0.02c-1.46,0.04-4.81,0.15-7.98,1.38C49.21,16.51,46.55,20.46,46.2,21.01z"/>
	
		<linearGradient id="SVGID_00000015339432712685283270000001615885507820054168_" gradientUnits="userSpaceOnUse" x1="30.2922" y1="10.3659" x2="65.8668" y2="83.0549">
		<stop  offset="0.0314" style="stop-color:#1765A0"/>
		<stop  offset="0.053" style="stop-color:#1F6E99"/>
		<stop  offset="0.1737" style="stop-color:#4B9E73"/>
		<stop  offset="0.2337" style="stop-color:#5CB165"/>
		<stop  offset="0.2499" style="stop-color:#62B361"/>
		<stop  offset="0.4151" style="stop-color:#9BC93F"/>
		<stop  offset="0.4946" style="stop-color:#B1D132"/>
		<stop  offset="0.5539" style="stop-color:#A6CD34"/>
		<stop  offset="0.6574" style="stop-color:#89C43B"/>
		<stop  offset="0.7921" style="stop-color:#5BB446"/>
		<stop  offset="0.8645" style="stop-color:#3FAB4C"/>
		<stop  offset="1" style="stop-color:#2C9B5B"/>
	</linearGradient>
	<path style="fill:url(#SVGID_00000015339432712685283270000001615885507820054168_);" d="M84.57,56.76
		c-0.42-0.17-0.77-0.25-1.15-0.32c-0.94-0.18-2.3-0.36-4.05-0.38c-1.14,0.03-2.83,0.06-4.87,0.1c-7.9,0.12-11.85,0.18-14.17,0
		c-4.83-0.37-10.76-0.83-16.68-4.55c-1.02-0.64-3.51-2.31-6-5.15c-1.48-1.69-3.44-3.97-4.47-7.53c-0.29-1-0.41-1.76-0.51-2.43
		c-0.24-1.57-0.74-5.06,0.43-9.11c0.9-3.13,2.41-5.21,3.36-6.51c0.77-1.04,3.17-4.12,7.4-6.6c4.87-2.85,9.55-3.36,12.04-3.45
		c-1.07-0.14-2.56-0.29-4.34-0.34c-2.21-0.06-6.01-0.14-10.43,0.98c-1.51,0.38-6.12,1.68-11.02,5.23c-5.86,4.25-8.82,9.32-9.91,11.4
		c-1.26,2.39-3.92,7.6-3.79,14.77c0.04,2.24,0.29,10.03,5.91,16.89c4.25,5.18,9.4,7.21,13.23,8.72c5.41,2.13,10.46,2.67,13.4,2.98
		c2.92,0.31,5.38,0.36,7.15,0.34c2.16-0.03,4.35-0.07,6.55-0.13c2.59-0.07,5.14-0.15,7.66-0.26c0.89,0,1.79,0,2.68,0
		c0.88-0.01,1.57,0.17,2,0.32c0.59,0.21,1.3,0.45,1.85,1.15c0.12,0.15,0.47,0.61,0.6,1.28c0.13,0.72-0.08,1.29-0.36,2.04
		c-0.85,2.22-1.22,2.86-1.14,2.91c0.2,0.14,3.08-3.43,6.29-8.17c0,0,3.3-4.91,4.66-10.79c0.07-0.32,0.12-0.76,0-1.24
		C86.55,57.55,84.89,56.9,84.57,56.76z"/>
	
		<linearGradient id="SVGID_00000176009472886287385100000004905259152391022513_" gradientUnits="userSpaceOnUse" x1="7.9379" y1="59.3312" x2="64.1463" y2="88.6303">
		<stop  offset="0" style="stop-color:#5CB165"/>
		<stop  offset="0.0307" style="stop-color:#62B361"/>
		<stop  offset="0.3438" style="stop-color:#9BC93F"/>
		<stop  offset="0.4946" style="stop-color:#B1D132"/>
		<stop  offset="0.5756" style="stop-color:#A6CD34"/>
		<stop  offset="0.7171" style="stop-color:#89C43B"/>
		<stop  offset="0.901" style="stop-color:#5BB446"/>
		<stop  offset="1" style="stop-color:#3FAB4C"/>
	</linearGradient>
	<path style="fill:url(#SVGID_00000176009472886287385100000004905259152391022513_);" d="M65.32,83.73
		c-1.09-0.86-2.36-0.96-2.74-0.99c-4.56-0.32-6.85-0.48-6.86-0.48c0,0-2.15,0.04-7.4-0.45c-1.1-0.1-6.26-0.63-12.13-3.16
		c-7.11-3.07-11.45-7.43-12.45-8.46c-0.78-0.81-4.66-4.89-7.56-11.43c-2.33-5.24-2.92-9.53-3.26-9.47
		c-0.33,0.07-0.06,4.36,0.94,8.72c0.88,3.87,2.69,11.44,8.96,18.62c1.96,2.24,8.11,9.1,18.83,11.81c11.9,3.01,21.6-1.07,24.51-2.43
		c0.1-0.12,0.21-0.29,0.26-0.51C66.56,84.7,65.6,83.95,65.32,83.73z"/>
</g>
</svg>
