<?xml version="1.0" encoding="utf-8"?>
<!-- Generator: Adobe Illustrator 27.9.0, SVG Export Plug-In . SVG Version: 6.00 Build 0)  -->
<svg version="1.1" id="Шар_1" xmlns="http://www.w3.org/2000/svg" xmlns:xlink="http://www.w3.org/1999/xlink" x="0px" y="0px"
	 viewBox="0 0 100 100" style="enable-background:new 0 0 100 100;" xml:space="preserve">
<style type="text/css">
	.st0{fill:#148E2E;}
	.st1{fill:#FFFFFF;}
</style>
<g>
	<circle class="st0" cx="50" cy="50" r="40.35"/>
	<path class="st1" d="M73.56,41.45c-0.42-0.34-0.85-0.5-1.17-0.58c-0.11-0.03-0.2-0.05-0.28-0.06h0h-8.18
		c-0.24-3.32-0.48-6.65-0.72-9.97c-0.06-0.64-0.27-1.24-0.61-1.74c-0.34-0.5-0.79-0.9-1.34-1.14c-0.21-0.09-1.22-0.51-2.36-0.06
		l0.19,4.44c-0.12,2.8-0.25,5.6-0.37,8.4H40.05c-0.12-2.8-0.25-5.6-0.37-8.4l0.19-4.44c-1.14-0.45-2.16-0.03-2.36,0.06
		c-0.41,0.18-0.77,0.45-1.06,0.78c-0.49,0.56-0.81,1.29-0.88,2.09c-0.24,3.32-0.48,6.65-0.72,9.97h-8.18h0
		c-0.08,0.01-0.17,0.03-0.28,0.06c-0.32,0.08-0.75,0.24-1.17,0.58c-0.99,0.8-1.13,1.97-1.15,2.21v3.66
		c0.01,0.07,0.02,0.18,0.04,0.31c0.05,0.26,0.15,0.62,0.36,0.99c0.1,0.19,0.24,0.38,0.4,0.57c0.55,0.63,1.2,0.87,1.49,0.96
		c2.57,7.66,5.15,15.32,7.72,22.98h30.6c2.57-7.66,5.15-15.32,7.72-22.98c0.29-0.09,0.94-0.33,1.49-0.96
		c0.17-0.19,0.3-0.38,0.4-0.57c0.21-0.38,0.31-0.73,0.36-0.99c0.03-0.13,0.04-0.24,0.04-0.31v-3.66
		C74.69,43.41,74.56,42.25,73.56,41.45z M44.68,63.63c-1.23,0-2.23-1-2.23-2.23s1-2.23,2.23-2.23h9.41c1.23,0,2.23,1,2.23,2.23
		s-1,2.23-2.23,2.23H44.68z M40.46,55.4c-1.23,0-2.23-1-2.23-2.23s1-2.23,2.23-2.23h17.87c1.23,0,2.23,1,2.23,2.23
		s-1,2.23-2.23,2.23H40.46z"/>
</g>
</svg>
