<?xml version="1.0" encoding="utf-8"?>
<!-- Generator: Adobe Illustrator 27.9.0, SVG Export Plug-In . SVG Version: 6.00 Build 0)  -->
<svg version="1.1" id="Шар_1" xmlns="http://www.w3.org/2000/svg" xmlns:xlink="http://www.w3.org/1999/xlink" x="0px" y="0px"
	 viewBox="0 0 100 100" style="enable-background:new 0 0 100 100;" xml:space="preserve">
<style type="text/css">
	.st0{clip-path:url(#SVGID_00000010299129291112199540000005909487765031330447_);}
	.st1{clip-path:url(#SVGID_00000124863929733088907130000008042346695723493788_);fill:#FFCA05;}
	.st2{clip-path:url(#SVGID_00000124863929733088907130000008042346695723493788_);}
	.st3{opacity:0.59;clip-path:url(#SVGID_00000010299129291112199540000005909487765031330447_);}
	.st4{opacity:0.59;}
	.st5{filter:url(#Adobe_OpacityMaskFilter);}
	
		.st6{clip-path:url(#SVGID_00000037653595792845216500000015937637026987020940_);fill:url(#SVGID_00000109029635757756903300000003054212892961325195_);}
	
		.st7{clip-path:url(#SVGID_00000037653595792845216500000015937637026987020940_);mask:url(#SVGID_00000102528725709665110450000000263936748553816971_);fill:url(#SVGID_00000112634082530871953300000001634534155121298323_);}
</style>
<g>
	<defs>
		<rect id="SVGID_1_" x="7.98" y="7.98" width="84.03" height="84.03"/>
	</defs>
	<clipPath id="SVGID_00000111896811927537786270000017180400672748583833_">
		<use xlink:href="#SVGID_1_"  style="overflow:visible;"/>
	</clipPath>
	<g style="clip-path:url(#SVGID_00000111896811927537786270000017180400672748583833_);">
		<defs>
			<rect id="SVGID_00000155864176626516037100000015561925157629793470_" x="7.98" y="7.98" width="84.03" height="84.03"/>
		</defs>
		<clipPath id="SVGID_00000163794603375283534270000007754560230940288906_">
			<use xlink:href="#SVGID_00000155864176626516037100000015561925157629793470_"  style="overflow:visible;"/>
		</clipPath>
		<path style="clip-path:url(#SVGID_00000163794603375283534270000007754560230940288906_);fill:#FFCA05;" d="M49.92,88.74
			C71.23,88.74,88.5,71.4,88.5,50S71.23,11.26,49.92,11.26S11.34,28.6,11.34,50S28.62,88.74,49.92,88.74"/>
		<path style="clip-path:url(#SVGID_00000163794603375283534270000007754560230940288906_);" d="M66.53,78.86
			c-13.1,7.59-27.31,8.95-36.39,4.41c11.62,6.95,26.54,7.55,39.08,0.29C81.76,76.27,88.7,63,88.52,49.41
			C87.9,59.58,79.62,71.27,66.53,78.86"/>
		<path style="clip-path:url(#SVGID_00000163794603375283534270000007754560230940288906_);" d="M54.82,14.09
			c2.66,4.62-3.76,13.34-14.34,19.46c-10.58,6.13-21.3,7.36-23.96,2.74c-0.11-0.22-0.22-0.46-0.29-0.71
			c-0.69-2.15,0.13-4.93,2.12-7.86c0.32-0.46,0.65-0.91,0.99-1.35c2.99-3.92,6.79-7.31,11.31-9.93c4.52-2.62,9.35-4.22,14.22-4.86
			c0.57-0.08,1.12-0.14,1.66-0.18c3.52-0.26,6.32,0.41,7.83,2.08C54.53,13.67,54.68,13.88,54.82,14.09"/>
		<path style="clip-path:url(#SVGID_00000163794603375283534270000007754560230940288906_);" d="M71.22,19.09
			c4.64,8.07-4.72,22.21-20.9,31.59c-16.18,9.38-33.06,10.45-37.69,2.38c-0.77-1.35-1.18-2.84-1.26-4.45
			c-0.2,5.42,0.73,10.93,2.89,16.16c0.32,0.78,0.67,1.56,1.05,2.32c0.01,0.03,0.04,0.07,0.05,0.1c1.4,2.43,3.46,4.34,6.04,5.72
			c9.08,4.88,24.42,3.2,38.77-5.12c14.34-8.32,23.46-20.82,23.8-31.15c0.1-2.92-0.51-5.66-1.89-8.09c-0.52-0.79-1.07-1.56-1.65-2.3
			c-3.4-4.42-7.64-7.94-12.35-10.45C69.39,16.67,70.45,17.76,71.22,19.09c0,0,0.01,0.01,0.01,0.01L71.22,19.09z"/>
	</g>
	<g style="opacity:0.59;clip-path:url(#SVGID_00000111896811927537786270000017180400672748583833_);">
		<defs>
			<path id="SVGID_00000002362276472746464980000004872685509326837121_" class="st4" d="M11.34,50c0,21.4,17.31,38.74,38.66,38.74
				c21.35,0,38.66-17.35,38.66-38.74c0-21.4-17.31-38.74-38.66-38.74C28.65,11.26,11.34,28.6,11.34,50"/>
		</defs>
		<clipPath id="SVGID_00000116219091122560817790000009789483133635377846_">
			<use xlink:href="#SVGID_00000002362276472746464980000004872685509326837121_"  style="overflow:visible;"/>
		</clipPath>
		<defs>
			<filter id="Adobe_OpacityMaskFilter" filterUnits="userSpaceOnUse" x="11.34" y="11.26" width="77.32" height="77.49">
				<feColorMatrix  type="matrix" values="1 0 0 0 0  0 1 0 0 0  0 0 1 0 0  0 0 0 1 0"/>
			</filter>
		</defs>
		
			<mask maskUnits="userSpaceOnUse" x="11.34" y="11.26" width="77.32" height="77.49" id="SVGID_00000056418501077300950640000013061782446420232587_">
			<g class="st5">
				
					<radialGradient id="SVGID_00000157998615770578437210000003014682812321438593_" cx="-199.0044" cy="300.9957" r="0.1681" gradientTransform="matrix(229.9757 0 0 230.5686 45816.1797 -69350.1641)" gradientUnits="userSpaceOnUse">
					<stop  offset="0" style="stop-color:#000000"/>
					<stop  offset="0.5" style="stop-color:#000000"/>
					<stop  offset="1" style="stop-color:#595959"/>
				</radialGradient>
				
					<rect x="11.34" y="11.26" style="clip-path:url(#SVGID_00000116219091122560817790000009789483133635377846_);fill:url(#SVGID_00000157998615770578437210000003014682812321438593_);" width="77.32" height="77.49"/>
			</g>
		</mask>
		
			<radialGradient id="SVGID_00000075159912386153542910000000439062617250443909_" cx="-199.0044" cy="300.9957" r="0.1681" gradientTransform="matrix(229.9757 0 0 230.5686 45816.1758 -69350.1641)" gradientUnits="userSpaceOnUse">
			<stop  offset="0" style="stop-color:#FFFFFF"/>
			<stop  offset="0.5" style="stop-color:#FFFFFF"/>
			<stop  offset="1" style="stop-color:#FFFFFF"/>
		</radialGradient>
		
			<rect x="11.34" y="11.26" style="clip-path:url(#SVGID_00000116219091122560817790000009789483133635377846_);mask:url(#SVGID_00000056418501077300950640000013061782446420232587_);fill:url(#SVGID_00000075159912386153542910000000439062617250443909_);" width="77.32" height="77.49"/>
	</g>
</g>
</svg>
