<?xml version="1.0" encoding="utf-8"?>
<!-- Generator: Adobe Illustrator 27.9.0, SVG Export Plug-In . SVG Version: 6.00 Build 0)  -->
<svg version="1.1" id="Шар_1" xmlns="http://www.w3.org/2000/svg" xmlns:xlink="http://www.w3.org/1999/xlink" x="0px" y="0px"
	 viewBox="0 0 100 100" style="enable-background:new 0 0 100 100;" xml:space="preserve">
<style type="text/css">
	.st0{fill-rule:evenodd;clip-rule:evenodd;fill:#FFD006;}
	.st1{fill-rule:evenodd;clip-rule:evenodd;}
	.st2{fill-rule:evenodd;clip-rule:evenodd;fill:#FFFFFF;}
</style>
<g>
	<circle class="st0" cx="50" cy="50" r="32.79"/>
	<g>
		<path class="st1" d="M37.72,46.9c0.06-1.54,0.44-5.56,3.43-9.13c2.63-3.14,5.84-4.23,7.73-4.87c1.73-0.58,5.27-1.73,9.53-0.82
			c6.65,1.43,10.12,6.86,10.87,8.08c1.76,0.4,3.52,0.79,5.28,1.19c-1.15,1.54-2.29,3.07-3.44,4.61c0.28,2.11,0.54,6.4-1.38,11.19
			c-0.6,1.51-1.94,4.73-5.04,7.51c-6.82,6.11-16.13,4.63-17.75,4.37c-4.69-0.74-8.26-2.77-10.56-4.44c1.7-0.33,3.39-0.67,5.09-1
			c-1.47-0.23-4.3-0.86-7.16-2.94c-3.62-2.63-5.09-5.97-5.47-6.91c-2.17-5.34-0.66-10.16-0.2-11.47c0.71,0.6,1.53,1.21,2.47,1.8
			C33.54,45.62,35.88,46.44,37.72,46.9z"/>
		<ellipse transform="matrix(0.995 -0.0994 0.0994 0.995 -4.0925 6.1232)" class="st2" cx="59.38" cy="44.12" rx="7.04" ry="7.78"/>
		
			<ellipse transform="matrix(0.9993 -0.0365 0.0365 0.9993 -1.517 2.2742)" class="st1" cx="61.48" cy="42.66" rx="1.97" ry="3.28"/>
	</g>
</g>
</svg>
