<?xml version="1.0" encoding="utf-8"?>
<!-- Generator: Adobe Illustrator 27.9.0, SVG Export Plug-In . SVG Version: 6.00 Build 0)  -->
<svg version="1.1" id="Шар_1" xmlns="http://www.w3.org/2000/svg" xmlns:xlink="http://www.w3.org/1999/xlink" x="0px" y="0px"
	 viewBox="0 0 100 100" style="enable-background:new 0 0 100 100;" xml:space="preserve">
<style type="text/css">
	.st0{fill:#109227;}
</style>
<path class="st0" d="M50,25.9c-13.31,0-24.1,10.79-24.1,24.1c0,13.31,10.79,24.1,24.1,24.1c13.31,0,24.1-10.79,24.1-24.1
	C74.1,36.69,63.31,25.9,50,25.9z M59.74,60.87c-4.41-2.81-8.82-5.62-13.22-8.44c0-5.33,0-10.66,0-15.98c1.51,0,3.03,0,4.54,0
	c0,4.3,0,8.6,0,12.9c3.79,2.57,7.57,5.14,11.36,7.71C61.52,58.33,60.63,59.6,59.74,60.87z"/>
</svg>
