<?xml version="1.0" encoding="utf-8"?>
<!-- Generator: Adobe Illustrator 27.9.0, SVG Export Plug-In . SVG Version: 6.00 Build 0)  -->
<svg version="1.1" id="Шар_1" xmlns="http://www.w3.org/2000/svg" xmlns:xlink="http://www.w3.org/1999/xlink" x="0px" y="0px"
	 viewBox="0 0 100 100" style="enable-background:new 0 0 100 100;" xml:space="preserve">
<style type="text/css">
	.st0{fill:#148E2E;}
	.st1{fill:#FFFFFF;}
</style>
<g>
	<circle class="st0" cx="50" cy="50" r="42.88"/>
	<path class="st1" d="M48.78,59.83h25.72V39.39H49.1c0-1.62,0-3.23,0-4.85c0-0.1-0.02-1.45-1.15-2.18
		c-0.88-0.58-2.08-0.52-2.98,0.14c-6.86,5.33-13.73,10.66-20.59,16c-0.66,0.59-0.96,1.44-0.76,2.21c0.16,0.6,0.57,0.96,0.75,1.1
		c6.84,5.36,13.68,10.72,20.52,16.09c0.18,0.13,0.84,0.61,1.78,0.54c0.76-0.06,1.3-0.45,1.64-0.79c0.27-0.27,0.41-0.64,0.41-1.02
		C48.75,64.37,48.76,62.1,48.78,59.83z"/>
</g>
</svg>
