<?xml version="1.0" encoding="utf-8"?>
<!-- Generator: Adobe Illustrator 27.9.0, SVG Export Plug-In . SVG Version: 6.00 Build 0)  -->
<svg version="1.1" id="Шар_1" xmlns="http://www.w3.org/2000/svg" xmlns:xlink="http://www.w3.org/1999/xlink" x="0px" y="0px"
	 viewBox="0 0 100 100" style="enable-background:new 0 0 100 100;" xml:space="preserve">
<style type="text/css">
	.st0{fill:#ADADAD;}
</style>
<path class="st0" d="M49.89,29.73C42.76,33.97,35.63,40.2,28.5,44.45c0,9.26,0,16.56,0,25.82h0.34c14.22,0,28.45,0,42.67,0
	c0-8.63,0-17.26,0-25.9C64.3,39.49,57.09,34.61,49.89,29.73z M50,62.16c-3.36,0-6.08-2.72-6.08-6.08c0-3.36,2.72-6.08,6.08-6.08
	c3.36,0,6.08,2.72,6.08,6.08C56.08,59.44,53.36,62.16,50,62.16z"/>
</svg>
