<?xml version="1.0" encoding="utf-8"?>
<!-- Generator: Adobe Illustrator 27.9.0, SVG Export Plug-In . SVG Version: 6.00 Build 0)  -->
<svg version="1.1" id="Шар_1" xmlns="http://www.w3.org/2000/svg" xmlns:xlink="http://www.w3.org/1999/xlink" x="0px" y="0px"
	 viewBox="0 0 100 100" style="enable-background:new 0 0 100 100;" xml:space="preserve">
<style type="text/css">
	.st0{fill:#ADADAD;}
</style>
<path class="st0" d="M68.48,33.42H31.52c-2.3,0-4.17,1.87-4.17,4.17v24.82c0,2.3,1.87,4.17,4.17,4.17h36.97
	c2.3,0,4.17-1.87,4.17-4.17V37.59C72.66,35.29,70.79,33.42,68.48,33.42z M62.89,51.04l-8.62,7.72c-1.07-1.14-2.15-2.29-3.22-3.43
	l3.55-3.27H37.38v-4.17h17.86c-1.45-1.34-2.89-2.68-4.34-4.01c1.13-0.92,2.25-1.83,3.38-2.75l8.63,8.02
	C63.46,49.66,63.46,50.54,62.89,51.04z"/>
</svg>
