<?xml version="1.0" encoding="utf-8"?>
<!-- Generator: Adobe Illustrator 27.9.0, SVG Export Plug-In . SVG Version: 6.00 Build 0)  -->
<svg version="1.1" id="Шар_1" xmlns="http://www.w3.org/2000/svg" xmlns:xlink="http://www.w3.org/1999/xlink" x="0px" y="0px"
	 viewBox="0 0 100 100" style="enable-background:new 0 0 100 100;" xml:space="preserve">
<style type="text/css">
	.st0{opacity:1;fill:#d4d2d2;}
	.st1{fill:#353633;}
</style>
<g>
	<path class="st0" d="M59.91,77.49H40.09c-9.71,0-17.57-7.87-17.57-17.57V40.09c0-9.71,7.87-17.57,17.57-17.57h19.83
		c9.71,0,17.57,7.87,17.57,17.57v19.83C77.49,69.62,69.62,77.49,59.91,77.49z"/>
	<g>
		<ellipse class="st1" cx="49.86" cy="43.05" rx="5.33" ry="5.84"/>
		<path class="st1" d="M42.14,62.79c5.02,0,10.04,0,15.06,0c2.23-0.54,3.85-2.23,4.04-4.13c0.2-2.03-1.07-3.49-1.31-3.73
			c-0.59-0.62-2.04-1.67-3.03-2.01c-1.75-0.61-3.44-0.88-6.77-0.89c-2.28-0.01-4.01-0.09-6.17,0.64c-1.09,0.37-2.47,0.85-3.66,2.17
			c-0.54,0.59-1.67,1.85-1.57,3.57c0.08,1.42,0.94,2.41,1.32,2.85C40.81,62.12,41.65,62.57,42.14,62.79z"/>
	</g>
</g>
</svg>
