<?xml version="1.0" encoding="utf-8"?>
<!-- Generator: Adobe Illustrator 27.9.0, SVG Export Plug-In . SVG Version: 6.00 Build 0)  -->
<svg version="1.1" id="Шар_1" xmlns="http://www.w3.org/2000/svg" xmlns:xlink="http://www.w3.org/1999/xlink" x="0px" y="0px"
	 viewBox="0 0 100 100" style="enable-background:new 0 0 100 100;" xml:space="preserve">
<style type="text/css">
	.st0{fill-rule:evenodd;clip-rule:evenodd;fill:#F11F14;}
	.st1{fill-rule:evenodd;clip-rule:evenodd;fill:#FFFFFF;}
	.st2{fill-rule:evenodd;clip-rule:evenodd;fill:#008F32;}
</style>
<g>
	<path class="st0" d="M50,15.19c-19.19,0-34.81,15.61-34.81,34.81S30.81,84.81,50,84.81c19.19,0,34.81-15.61,34.81-34.81
		S69.19,15.19,50,15.19"/>
	<path class="st1" d="M50,19.56c-16.79,0-30.44,13.66-30.44,30.44S33.21,80.44,50,80.44c16.78,0,30.44-13.66,30.44-30.44
		S66.78,19.56,50,19.56"/>
	<path class="st2" d="M65.36,28.17c-2.32,5.96-7.61,7.2-15.27,7.2c-0.82,0-1.64-0.01-2.42-0.02c-0.76-0.01-1.48-0.02-2.18-0.02
		c-0.63,0-1.26,0.01-1.88,0.03c1.07-2.63,2.79-4.43,5.22-5.51c3.4-1.51,7.82-1.53,11.72-1.54C62.24,28.3,63.87,28.29,65.36,28.17"/>
	<path class="st0" d="M67.75,30.08c-3.44,7.49-11.1,8.24-17.66,8.24c-1.44,0-2.82-0.03-4.1-0.04l-1.65,6.47
		C52.8,37.83,64,44.68,62.8,55.1C62,62.11,56.99,66.7,51.7,68.02c-5.76,1.44-12.15-0.71-15.02-6.59c-0.3-0.62-0.83-1.86-1.03-2.53
		l6.08-1.56c0.11,0.35,0.29,0.69,0.48,1c4.07,6.56,12.32,3.28,13.25-3.53c0.95-6.93-8.77-10.62-13.2-2.52l-5.39-2.3l-0.09-0.04
		l2.6-10.44c0.16-0.74,0.7-2.81,0.79-3.15c2.94-10.81,12.45-10.98,20.07-11c-3.15-1.31-6.61-2.04-10.24-2.04
		c-14.74,0-26.68,11.95-26.68,26.68S35.26,76.68,50,76.68S76.68,64.74,76.68,50C76.68,42.08,73.23,34.97,67.75,30.08"/>
</g>
</svg>
