<?xml version="1.0" encoding="utf-8"?>
<!-- Generator: Adobe Illustrator 27.9.0, SVG Export Plug-In . SVG Version: 6.00 Build 0)  -->
<svg version="1.1" id="Шар_1" xmlns="http://www.w3.org/2000/svg" xmlns:xlink="http://www.w3.org/1999/xlink" x="0px" y="0px"
	 viewBox="0 0 100 100" style="enable-background:new 0 0 100 100;" xml:space="preserve">
<style type="text/css">
	.st0{fill:#148E2E;}
	.st1{fill:#FFFFFF;}
</style>
<g>
	<circle class="st0" cx="50" cy="50" r="42.88"/>
	<path class="st1" d="M85.13,48.02L61.3,29.51c-1.04-0.77-2.42-0.83-3.45-0.17c-1.3,0.85-1.33,2.41-1.33,2.53v5.08l-32.57,0.47
		c-1.22,0.02-2.2,1.01-2.2,2.24c0,1.23,1,2.24,2.24,2.24h12.23c1.23,0,2.24,1,2.24,2.24v0.45c0,1.23-1,2.24-2.24,2.24H16.15
		c-1.23,0-2.24,1-2.24,2.24v0.73c0,1.23,1,2.24,2.24,2.24h25.24c1.23,0,2.24,1,2.24,2.24v0.93c0,1.23-1,2.24-2.24,2.24h-6.54
		c-1.23,0-2.24,1-2.24,2.24v0.55c0,1.23,1,2.24,2.24,2.24h22.06l0.05,6.59c0,0.44,0.16,0.87,0.47,1.18c0.39,0.39,1.02,0.84,1.9,0.91
		c1.08,0.08,1.85-0.47,2.06-0.62c7.92-6.21,15.84-12.42,23.76-18.62c0.21-0.16,0.69-0.58,0.87-1.28
		C86.25,49.7,85.9,48.71,85.13,48.02z"/>
</g>
</svg>
