<?xml version="1.0" encoding="utf-8"?>
<!-- Generator: Adobe Illustrator 27.9.0, SVG Export Plug-In . SVG Version: 6.00 Build 0)  -->
<svg version="1.1" id="Шар_1" xmlns="http://www.w3.org/2000/svg" xmlns:xlink="http://www.w3.org/1999/xlink" x="0px" y="0px"
	 viewBox="0 0 100 100" style="enable-background:new 0 0 100 100;" xml:space="preserve">
<style type="text/css">
	.st0{fill:#148E2E;}
	.st1{fill:#FFFFFF;}
</style>
<g>
	<circle class="st0" cx="50" cy="50" r="41.78"/>
	<g>
		<path class="st1" d="M57.87,50.6c-5.56,5.71-11.12,11.42-16.68,17.13c-0.59,0.61-0.51,1.6,0.18,2.1c1.03,0.75,2.51,1.58,4.42,2
			c3.27,0.73,6.03-0.11,7.55-0.77c0.62-0.27,1.18-0.66,1.65-1.14c3.49-3.52,6.98-7.04,10.46-10.56c0.5-0.5,0.99-0.99,1.49-1.49
			c0.05-0.04,0.39-0.26,0.8-0.15c0.25,0.07,0.4,0.22,0.46,0.29c0.55,0.62,1.11,1.24,1.66,1.86c0.07,0.09,1.11,1.31,2.67,1.13
			c0.13-0.01,1.41-0.18,2.08-1.28c0.2-0.32,0.29-0.63,0.33-0.84V42.62c0-0.55-0.45-1-1-1H56.87c-0.08,0.01-1.66,0.18-2.26,1.5
			c-0.39,0.86-0.13,1.69-0.11,1.75c0.2,0.6,0.59,0.95,0.77,1.1c0.74,0.57,1.49,1.14,2.23,1.72c0.32,0.22,0.55,0.45,0.69,0.62
			c0.16,0.18,0.26,0.3,0.33,0.49c0.12,0.32,0.06,0.61,0.04,0.75C58.43,50.13,58.02,50.49,57.87,50.6z"/>
		<path class="st1" d="M42.13,49.4c5.56-5.71,11.12-11.42,16.68-17.13c0.59-0.61,0.51-1.6-0.18-2.1c-1.03-0.75-2.51-1.58-4.42-2
			c-3.19-0.71-5.9,0.07-7.44,0.72c-0.69,0.29-1.31,0.73-1.84,1.27c-3.46,3.49-6.92,6.98-10.38,10.48c-0.5,0.5-0.99,0.99-1.49,1.49
			c-0.05,0.04-0.39,0.26-0.8,0.15c-0.25-0.07-0.4-0.22-0.46-0.29c-0.55-0.62-1.11-1.24-1.66-1.86c-0.07-0.09-1.11-1.31-2.67-1.13
			c-0.13,0.01-1.41,0.18-2.08,1.28c-0.2,0.32-0.29,0.63-0.33,0.84v16.27c0,0.55,0.45,1,1,1h17.08c0.08-0.01,1.66-0.18,2.26-1.5
			c0.39-0.86,0.13-1.69,0.11-1.75c-0.2-0.6-0.59-0.95-0.77-1.1c-0.74-0.57-1.49-1.14-2.23-1.72c-0.32-0.22-0.55-0.45-0.69-0.62
			c-0.16-0.18-0.26-0.3-0.33-0.49c-0.12-0.32-0.06-0.61-0.04-0.75C41.57,49.87,41.98,49.51,42.13,49.4z"/>
	</g>
</g>
</svg>
