<?xml version="1.0" encoding="utf-8"?>
<!-- Generator: Adobe Illustrator 27.9.0, SVG Export Plug-In . SVG Version: 6.00 Build 0)  -->
<svg version="1.1" id="Шар_1" xmlns="http://www.w3.org/2000/svg" xmlns:xlink="http://www.w3.org/1999/xlink" x="0px" y="0px"
	 viewBox="0 0 100 100" style="enable-background:new 0 0 100 100;" xml:space="preserve">
<style type="text/css">
	.st0{fill:#FFE40F;}
</style>
<g>
	<circle class="st0" cx="50" cy="50" r="36.75"/>
	<path d="M65.32,68.78c-7.03,0-8.38-6.05-4.16-14.38c4.11-8.38,11.78-14.48,18.54-14.48c6.81,0,8.32,6,4.11,14.48
		C79.69,62.78,72.56,68.78,65.32,68.78z M56.56,33.49c2.76,0,2,6.43-1.57,12.81h7.46c8.11-17.13,1.95-23.78-5.03-23.78
		c-11.29,0-23.99,11.4-31.99,26.05c-8.38,15.35-7.4,27.24,3.35,27.24c12.21,0,24.05-10.97,32.43-26.32H45.27l-3.13,5.08h10.48
		L53,49.98c-5.13,8.97-11.08,14.81-14.43,14.81c-3.3,0-2-6.65,3.13-15.62C46.89,40.14,53,33.49,56.56,33.49z M77.42,54.35
		c2.7-4.54,3.03-7.78,1.41-7.78c-1.78,0-4.65,3.35-7.3,7.78c-2.76,4.49-3.08,7.73-1.41,7.73C71.91,62.08,74.78,58.73,77.42,54.35z"
		/>
</g>
</svg>
