<?xml version="1.0" encoding="utf-8"?>
<!-- Generator: Adobe Illustrator 27.9.0, SVG Export Plug-In . SVG Version: 6.00 Build 0)  -->
<svg version="1.1" id="Шар_1" xmlns="http://www.w3.org/2000/svg" xmlns:xlink="http://www.w3.org/1999/xlink" x="0px" y="0px"
	 viewBox="0 0 100 100" style="enable-background:new 0 0 100 100;" xml:space="preserve">
<style type="text/css">
	.st0{fill:#FF3B21;}
	.st1{fill:#FFFFFF;}
</style>
<g>
	<path class="st0" d="M10.87,50c0-21.61,17.51-39.13,39.13-39.13c21.61,0,39.13,17.52,39.13,39.13S71.61,89.13,50,89.13
		C28.39,89.13,10.87,71.61,10.87,50z"/>
	<path class="st1" d="M55.01,33.04h-3.62c-6.63,0-10.11,3.36-10.11,8.31c0,5.6,2.41,8.22,7.36,11.58l4.09,2.75L40.98,73.24H32.2
		l10.54-15.71c-6.06-4.35-9.47-8.57-9.47-15.71c0-8.95,6.24-15.06,18.08-15.06H63.1v46.44h-8.09V33.04z"/>
</g>
</svg>
